<?xml version="1.0" encoding="UTF-8"?><svg id="Layer_1" xmlns="http://www.w3.org/2000/svg" viewBox="0 0 36.83 32"><defs><style>.cls-1,.cls-2{fill-rule:evenodd;}.cls-1,.cls-2,.cls-3{stroke-width:0px;}.cls-1,.cls-3{fill:#20744a;}.cls-2{fill:#fff;}</style></defs><path class="cls-1" d="m30.44,4.84h-9.75v-2.3L4.67,5.02v21.68l16.02,2.76v-3.4h9.75c.65,0,1.17-.47,1.17-1.05V5.9c0-.58-.53-1.05-1.17-1.05Zm.15,20.33h-9.94l-.02-1.82h2.39v-2.12h-2.41v-1.25s2.41,0,2.41,0v-2.12h-2.44v-1.25s2.44,0,2.44,0v-2.12h-2.46v-1.25h2.46v-2.12h-2.46v-1.25h2.46v-2.12h-2.46v-1.92h10.02v19.34Z"/><rect class="cls-3" x="24.38" y="7.76" width="4.16" height="2.12"/><rect class="cls-3" x="24.38" y="11.13" width="4.16" height="2.12"/><rect class="cls-3" x="24.38" y="14.5" width="4.16" height="2.12"/><rect class="cls-3" x="24.38" y="17.87" width="4.16" height="2.12"/><rect class="cls-3" x="24.38" y="21.24" width="4.16" height="2.12"/><polygon class="cls-2" points="8.85 10.87 10.91 10.76 12.21 14.32 13.75 10.61 15.81 10.49 13.3 15.56 15.81 20.64 13.63 20.49 12.15 16.62 10.68 20.34 8.67 20.17 11 15.68 8.85 10.87"/></svg>