<?xml version="1.0" encoding="UTF-8"?><svg id="Layer_1" xmlns="http://www.w3.org/2000/svg" viewBox="0 0 28.52 32"><defs><style>.cls-1{fill:#616262;}.cls-1,.cls-2,.cls-3,.cls-4,.cls-5{stroke-width:0px;}.cls-2{fill:#767677;}.cls-3{fill:#4e4e4e;}.cls-4{fill:#9e9e9e;}.cls-5{fill:#f37726;}</style></defs><g id="Canvas"><g id="Group"><g id="Group-2"><g id="Group-3"><g id="g"><g id="path"><g id="path9_fill"><path id="path0_fill" class="cls-3" d="m3.01,16.21c0,.89-.07,1.18-.25,1.39-.2.18-.47.29-.74.29l.07.51c.43,0,.84-.14,1.16-.42.17-.21.3-.46.38-.72.08-.26.1-.54.07-.81v-3.37h-.68v3.13Z"/></g></g><g id="path-2"><g id="path10_fill"><path id="path1_fill" class="cls-3" d="m8.09,15.81c0,.38,0,.72.03,1.02h-.61l-.04-.61c-.13.21-.31.39-.53.51-.22.12-.46.18-.71.18-.59,0-1.29-.32-1.29-1.63v-2.17h.68v2.04c0,.71.22,1.18.83,1.18.13,0,.25-.02.37-.07.12-.05.22-.12.31-.21.09-.09.16-.2.21-.31.05-.12.07-.24.07-.37v-2.28h.68v2.7l-.02.02Z"/></g></g><g id="path-3"><g id="path11_fill"><path id="path2_fill" class="cls-3" d="m9.39,14.32c0-.47,0-.86-.03-1.21h.61l.03.64c.14-.23.33-.42.57-.55.23-.13.5-.19.77-.18.91,0,1.59.76,1.59,1.89,0,1.33-.82,2-1.71,2-.23.01-.45-.04-.65-.14-.2-.1-.38-.26-.5-.44h0v2.04h-.67v-4.04Zm.67.99c0,.09.01.18.03.27.06.23.19.43.37.57.18.14.41.22.64.22.72,0,1.14-.59,1.14-1.44,0-.74-.4-1.38-1.11-1.38-.28.02-.55.15-.75.35s-.31.48-.33.76v.64Z"/></g></g><g id="path-4"><g id="path12_fill"><path id="path3_fill" class="cls-3" d="m14.13,13.11l.82,2.19c.09.24.18.54.24.76.07-.22.15-.51.24-.77l.74-2.18h.72l-1.02,2.65c-.51,1.27-.82,1.93-1.29,2.33-.24.22-.52.37-.83.44l-.17-.57c.22-.07.42-.18.6-.33.25-.2.45-.46.58-.75.03-.05.05-.11.06-.16,0-.06-.02-.12-.05-.18l-1.38-3.43h.75Z"/></g></g><g id="path-5"><g id="path13_fill"><path id="path4_fill" class="cls-3" d="m18.71,12.04v1.07h.98v.51h-.98v2.01c0,.46.13.72.51.72.13,0,.27-.01.4-.05l.03.51c-.19.07-.4.1-.61.09-.14,0-.27-.01-.4-.06-.13-.05-.24-.13-.34-.22-.21-.28-.3-.62-.26-.97v-2.04h-.58v-.51h.59v-.91l.66-.16Z"/></g></g><g id="path-6"><g id="path14_fill"><path id="path5_fill" class="cls-3" d="m20.94,15.09c-.01.17.01.35.07.51s.15.31.28.43c.12.12.27.22.43.28s.34.08.51.07c.35,0,.7-.06,1.02-.19l.12.51c-.4.16-.82.24-1.25.23-.25.02-.5-.02-.73-.11-.23-.09-.44-.23-.62-.4-.18-.18-.31-.39-.39-.63-.08-.23-.12-.49-.1-.73,0-1.12.67-2.01,1.76-2.01,1.22,0,1.53,1.07,1.53,1.75,0,.11,0,.21,0,.32h-2.63l.02-.02Zm2-.51c.02-.14,0-.27-.03-.41-.04-.13-.1-.25-.19-.36-.09-.1-.2-.19-.33-.25-.12-.06-.26-.09-.4-.09-.28.02-.54.14-.73.35-.19.2-.3.47-.31.75h1.99Z"/></g></g><g id="path-7"><g id="path15_fill"><path id="path6_fill" class="cls-3" d="m24.59,14.27c0-.44,0-.81-.03-1.16h.61v.73h.03c.06-.22.2-.42.38-.57.18-.15.41-.23.64-.24.06,0,.13,0,.19,0v.64c-.08,0-.16,0-.23,0-.23,0-.45.1-.62.26-.17.16-.27.37-.29.6-.02.1-.03.21-.03.32v1.98h-.67v-2.55h.03Z"/></g></g></g></g><g id="g-2"><g id="path-8"><g id="path16_fill"><path id="path7_fill" class="cls-2" d="m24.29,2.88c.02.34-.06.68-.23.98-.17.3-.43.53-.74.68-.31.15-.65.2-.99.15-.34-.05-.66-.2-.91-.43-.25-.23-.44-.53-.52-.86-.08-.33-.07-.68.05-1,.12-.32.33-.6.6-.81.28-.2.61-.32.95-.33.22-.01.45.02.66.09.21.07.41.19.57.34.17.15.3.33.4.54s.15.42.16.65h0Z"/></g></g><g id="path-9"><g id="path17_fill"><path id="path8_fill" class="cls-5" d="m14.23,22.82c-4.58,0-8.61-1.64-10.69-4.07.81,2.18,2.27,4.07,4.18,5.4,1.91,1.33,4.18,2.04,6.51,2.04s4.6-.71,6.51-2.04c1.91-1.33,3.37-3.22,4.18-5.4-2.08,2.43-6.09,4.07-10.69,4.07Z"/></g></g><g id="path-10"><g id="path18_fill"><path id="path9_fill-2" class="cls-5" d="m14.23,7.03c4.58,0,8.61,1.64,10.69,4.07-.81-2.18-2.27-4.07-4.18-5.4-1.91-1.33-4.18-2.04-6.51-2.04s-4.6.71-6.51,2.04c-1.91,1.33-3.37,3.22-4.18,5.4,2.08-2.43,6.09-4.07,10.69-4.07Z"/></g></g><g id="path-11"><g id="path19_fill"><path id="path10_fill-2" class="cls-4" d="m7.92,27.55c.03.43-.08.86-.29,1.23-.22.37-.54.67-.93.86-.39.19-.82.26-1.25.2-.43-.06-.83-.25-1.15-.54-.32-.29-.55-.67-.65-1.08-.11-.42-.08-.86.06-1.27.15-.41.41-.76.76-1.02.35-.26.76-.4,1.19-.42.28-.02.57.03.83.12.27.09.51.24.72.43.21.19.38.42.5.67.12.26.19.53.21.81h0Z"/></g></g><g id="path-12"><g id="path20_fill"><path id="path11_fill-2" class="cls-1" d="m4.06,6.48c-.25,0-.49-.06-.7-.19-.21-.13-.38-.32-.48-.55-.1-.23-.13-.48-.09-.72.04-.24.15-.47.32-.65.17-.18.39-.31.63-.36.24-.06.49-.04.72.04.23.09.43.24.58.44.15.2.23.44.24.68,0,.33-.11.66-.34.9-.23.24-.54.39-.88.4Z"/></g></g></g></g></g></g></svg>