<?xml version="1.0" encoding="UTF-8"?><svg id="Layer_1" xmlns="http://www.w3.org/2000/svg" viewBox="0 0 106.25 32"><defs><style>.cls-1{fill:#130754;}.cls-1,.cls-2,.cls-3{stroke-width:0px;}.cls-2{fill:#e70488;}.cls-3{fill:#ffca00;}</style></defs><path class="cls-1" d="m37.78,20.36c-1.33,0-2.69-.55-3.54-1.63v5.84h-2.67v-14.41h2.41l.09,1.58c.83-1.22,2.3-1.86,3.7-1.86,2.69,0,4.67,2.25,4.67,5.24s-1.98,5.24-4.67,5.24Zm-.83-8.5c-1.56,0-2.83,1.22-2.83,3.26s1.26,3.27,2.83,3.27,2.83-1.22,2.83-3.26-1.26-3.27-2.83-3.27Z"/><path class="cls-1" d="m52.5,20.08l-.09-1.58c-.83,1.22-2.3,1.86-3.7,1.86-2.69,0-4.67-2.25-4.67-5.24s1.98-5.24,4.67-5.24c1.4,0,2.87.65,3.7,1.86l.09-1.58h2.42v9.93h-2.42Zm-2.96-8.23c-1.56,0-2.83,1.22-2.83,3.26s1.26,3.26,2.83,3.26,2.83-1.22,2.83-3.26-1.26-3.26-2.83-3.26h0Z"/><path class="cls-1" d="m64.24,20.09v-5.49c0-1.93-.67-2.57-1.88-2.57s-2.64,1.15-2.64,2.53v5.54h-2.67v-9.93h2.44l.12,1.84c.67-1.26,2.16-2.11,3.68-2.11,2.64,0,3.63,1.84,3.63,4.3v5.91h-2.67Z"/><path class="cls-1" d="m76.67,20.09l-.09-1.59c-.83,1.22-2.3,1.86-3.7,1.86-2.69,0-4.67-2.25-4.67-5.24s1.98-5.24,4.67-5.24c1.33,0,2.69.55,3.54,1.63v-5.22h2.67v13.79h-2.41Zm-2.96-8.23c-1.56,0-2.83,1.22-2.83,3.26s1.26,3.26,2.83,3.26,2.83-1.22,2.83-3.26-1.26-3.26-2.83-3.26Z"/><path class="cls-1" d="m89.1,20.09l-.09-1.58c-.83,1.22-2.3,1.86-3.7,1.86-2.69,0-4.67-2.25-4.67-5.24s1.98-5.24,4.67-5.24c1.4,0,2.87.65,3.7,1.86l.09-1.59h2.41v9.93h-2.41Zm-2.96-8.23c-1.56,0-2.83,1.22-2.83,3.26s1.26,3.26,2.83,3.26,2.83-1.22,2.83-3.26-1.26-3.26-2.83-3.26h0Z"/><path class="cls-1" d="m97.42,20.41c-1.4-.01-2.78-.4-3.98-1.13l.44-1.84c.8.48,2.02,1.1,3.49,1.1,1.06,0,1.79-.32,1.79-1.15,0-.71-.76-.96-2.11-1.29-2.44-.53-3.31-1.82-3.31-3.22,0-1.56,1.22-3.03,3.91-3.03,1.63,0,3.06.71,3.37.9l-.44,1.75c-.87-.52-1.86-.81-2.87-.83-1.08,0-1.61.37-1.61.96,0,.67.69.96,1.75,1.22,2.62.55,3.68,1.77,3.68,3.1,0,2.14-1.56,3.45-4.11,3.45Z"/><rect class="cls-1" x="9.77" y="3.4" width="3.12" height="6.49"/><rect class="cls-1" x="9.77" y="16.72" width="3.12" height="6.49"/><rect class="cls-3" x="9.77" y="11.78" width="3.12" height="3.06"/><rect class="cls-1" x="4.75" y="8.73" width="3.12" height="21.56"/><rect class="cls-1" x="14.68" y="22.07" width="3.12" height="6.49"/><rect class="cls-1" x="14.68" y="8.74" width="3.12" height="6.49"/><rect class="cls-2" x="14.68" y="17.12" width="3.12" height="3.06"/><rect class="cls-1" x="19.6" y="1.71" width="3.12" height="21.56"/></svg>